<?xml version="1.0" encoding="UTF-8"?>
<!DOCTYPE svg PUBLIC "-//W3C//DTD SVG 1.1//EN" "http://www.w3.org/Graphics/SVG/1.1/DTD/svg11.dtd">
<svg xmlns="http://www.w3.org/2000/svg" version="1.1" width="512px" height="512px" style="shape-rendering:geometricPrecision; text-rendering:geometricPrecision; image-rendering:optimizeQuality; fill-rule:evenodd; clip-rule:evenodd" xmlns:xlink="http://www.w3.org/1999/xlink">
<g><path style="opacity:0.975" fill="#000000" d="M 233.5,-0.5 C 248.167,-0.5 262.833,-0.5 277.5,-0.5C 366.9,9.59958 434.4,53.2662 480,130.5C 497.292,162.534 507.792,196.534 511.5,232.5C 511.5,247.833 511.5,263.167 511.5,278.5C 509.548,293.524 506.715,308.524 503,323.5C 501.141,328.026 497.974,331.192 493.5,333C 334.833,333.667 176.167,333.667 17.5,333C 13,331.167 9.83333,328 8,323.5C 4.17565,308.206 1.34231,292.872 -0.5,277.5C -0.5,262.5 -0.5,247.5 -0.5,232.5C 9.30468,148.244 49.638,83.0769 120.5,37C 155.423,15.9699 193.09,3.46991 233.5,-0.5 Z M 234.5,30.5 C 331.595,26.2845 404.762,65.6178 454,148.5C 480.02,197.444 487.187,248.944 475.5,303C 328.597,303.832 181.764,303.666 35,302.5C 20.1198,218.478 43.2865,146.978 104.5,88C 141.817,55.3883 185.15,36.2216 234.5,30.5 Z"/></g>
<g><path style="opacity:0.948" fill="#000000" d="M 249.5,69.5 C 261.398,67.2703 268.565,71.937 271,83.5C 271.887,95.2162 271.554,106.883 270,118.5C 264.008,128.606 255.841,130.772 245.5,125C 243.383,123.269 241.883,121.102 241,118.5C 240.333,105.167 240.333,91.8333 241,78.5C 242.688,74.3148 245.521,71.3148 249.5,69.5 Z"/></g>
<g><path style="opacity:0.944" fill="#000000" d="M 170.5,91.5 C 175.454,92.3942 179.62,94.7276 183,98.5C 188,107.167 193,115.833 198,124.5C 201.959,137.523 197.292,145.189 184,147.5C 178.534,147.267 174.2,144.934 171,140.5C 166,131.833 161,123.167 156,114.5C 152.271,101.273 157.104,93.6062 170.5,91.5 Z"/></g>
<g><path style="opacity:0.943" fill="#000000" d="M 339.5,91.5 C 351.754,92.5877 357.254,99.2543 356,111.5C 350.935,121.296 345.601,130.962 340,140.5C 330.602,150.012 321.602,149.679 313,139.5C 311.566,135.594 311.233,131.594 312,127.5C 317.355,115.953 323.855,105.12 331.5,95C 334.158,93.522 336.825,92.3554 339.5,91.5 Z"/></g>
<g><path style="opacity:0.944" fill="#000000" d="M 103.5,154.5 C 108.08,154.113 112.414,154.947 116.5,157C 123.337,161.253 130.337,165.253 137.5,169C 148.632,176.259 150.299,185.259 142.5,196C 136.882,199.735 130.882,200.402 124.5,198C 115.833,193 107.167,188 98.5,183C 89.8927,174.518 89.8927,165.851 98.5,157C 100.315,156.243 101.981,155.41 103.5,154.5 Z"/></g>
<g><path style="opacity:0.943" fill="#000000" d="M 399.5,154.5 C 416.946,155.095 422.446,163.429 416,179.5C 414.833,180.667 413.667,181.833 412.5,183C 403.833,188 395.167,193 386.5,198C 373.477,201.959 365.811,197.292 363.5,184C 363.733,178.534 366.066,174.2 370.5,171C 380.261,165.459 389.928,159.959 399.5,154.5 Z"/></g>
<g><path style="opacity:0.939" fill="#000000" d="M 296.5,193.5 C 308.58,191.446 315.913,196.279 318.5,208C 318.095,212.249 316.595,216.083 314,219.5C 297.107,237.062 279.607,253.895 261.5,270C 245.333,272.5 238.5,265.667 241,249.5C 242,247.833 243,246.167 244,244.5C 261.091,226.906 278.591,209.906 296.5,193.5 Z"/></g>
<g><path style="opacity:0.967" fill="#000000" d="M 78.5,240.5 C 91.8375,240.333 105.171,240.5 118.5,241C 127.46,245.632 130.293,252.799 127,262.5C 125.108,266.058 122.275,268.558 118.5,270C 105.167,270.667 91.8333,270.667 78.5,270C 69.639,264.734 67.139,257.234 71,247.5C 73.0147,244.588 75.5147,242.255 78.5,240.5 Z"/></g>
<g><path style="opacity:0.966" fill="#000000" d="M 392.5,240.5 C 405.837,240.333 419.171,240.5 432.5,241C 440.915,245.348 443.748,252.181 441,261.5C 439.5,265.667 436.667,268.5 432.5,270C 419.167,270.667 405.833,270.667 392.5,270C 382.394,264.008 380.228,255.841 386,245.5C 387.965,243.45 390.132,241.783 392.5,240.5 Z"/></g>
<g><path style="opacity:0.971" fill="#000000" d="M 142.5,511.5 C 123.833,511.5 105.167,511.5 86.5,511.5C 82.5212,509.685 79.6878,506.685 78,502.5C 77.3333,458.167 77.3333,413.833 78,369.5C 79.4421,365.725 81.9421,362.892 85.5,361C 94.1085,359.894 102.775,359.394 111.5,359.5C 126.035,357.631 139.701,360.131 152.5,367C 167.794,378.876 173.627,394.376 170,413.5C 168.845,417.975 167.012,422.142 164.5,426C 182.866,443.744 186.699,464.244 176,487.5C 167.975,500.078 156.809,508.078 142.5,511.5 Z M 108.5,390.5 C 115.841,390.334 123.174,390.5 130.5,391C 142.225,397.452 143.225,405.119 133.5,414C 125.251,415.406 116.917,415.906 108.5,415.5C 108.5,407.167 108.5,398.833 108.5,390.5 Z M 108.5,446.5 C 119.245,446.071 129.912,446.571 140.5,448C 150.843,454.208 153.343,462.708 148,473.5C 146.127,475.709 143.96,477.542 141.5,479C 130.578,480.431 119.578,480.931 108.5,480.5C 108.5,469.167 108.5,457.833 108.5,446.5 Z"/></g>
<g><path style="opacity:0.966" fill="#000000" d="M 297.5,511.5 C 293.5,511.5 289.5,511.5 285.5,511.5C 279.878,509.376 276.045,505.376 274,499.5C 267.667,477.833 261.333,456.167 255,434.5C 250.656,457.565 245.989,480.565 241,503.5C 236.174,510.144 229.674,512.311 221.5,510C 213.215,505.17 210.382,498.003 213,488.5C 219.892,450.147 226.892,411.814 234,373.5C 236.476,364.363 242.476,359.696 252,359.5C 259.11,360.052 264.443,363.385 268,369.5C 275.822,395.121 283.489,420.788 291,446.5C 298.838,420.155 306.838,393.821 315,367.5C 323.181,358.379 332.348,357.212 342.5,364C 345.164,366.669 346.998,369.836 348,373.5C 355.441,411.813 362.774,450.146 370,488.5C 372.543,506.468 365.043,513.301 347.5,509C 345,507.833 343.167,506 342,503.5C 336.799,480.636 332.133,457.636 328,434.5C 321.266,456.038 314.932,477.704 309,499.5C 306.955,505.376 303.122,509.376 297.5,511.5 Z"/></g>
<g><path style="opacity:0.961" fill="#000000" d="M 424.5,511.5 C 420.833,511.5 417.167,511.5 413.5,511.5C 409.189,509.353 406.022,506.02 404,501.5C 403.333,457.5 403.333,413.5 404,369.5C 406.982,363.174 411.982,359.84 419,359.5C 427.981,360.481 432.981,365.481 434,374.5C 434.667,415.5 434.667,456.5 434,497.5C 433.041,503.777 429.874,508.444 424.5,511.5 Z"/></g>
</svg>
